<?xml version="1.0" standalone="no"?>
<!DOCTYPE svg PUBLIC "-//W3C//DTD SVG 20010904//EN"
 "http://www.w3.org/TR/2001/REC-SVG-20010904/DTD/svg10.dtd">
<svg version="1.0" xmlns="http://www.w3.org/2000/svg"
 width="512.000000pt" height="512.000000pt" viewBox="0 0 512.000000 512.000000"
 preserveAspectRatio="xMidYMid meet">
<metadata>
Created by potrace 1.11, written by Peter Selinger 2001-2013
</metadata>
<g transform="translate(0.000000,512.000000) scale(0.100000,-0.100000)"
fill="#000000" stroke="none">
<path d="M1653 4578 c-5 -7 -9 -50 -9 -96 1 -46 -1 -85 -5 -88 -3 -2 -137 -4
-296 -4 l-290 -1 -36 -25 c-57 -38 -60 -59 -54 -420 5 -351 8 -369 72 -500 33
-69 97 -160 139 -198 126 -113 280 -188 414 -200 24 -2 46 -6 49 -9 2 -3 7
-27 9 -54 6 -69 13 -115 28 -188 1 -5 8 -28 15 -50 92 -278 331 -511 608 -591
l53 -16 -2 -211 -3 -212 -229 -2 c-129 -2 -244 -7 -262 -13 -42 -14 -87 -55
-110 -100 -16 -31 -18 -69 -20 -340 -1 -168 -2 -308 -3 -312 0 -4 -9 -6 -18
-6 -48 4 -131 -62 -155 -121 -14 -34 -20 -242 -8 -261 8 -13 136 -15 1011 -15
750 0 1005 3 1014 12 8 7 11 49 10 125 -1 88 -6 122 -21 153 -22 46 -95 105
-130 105 -13 0 -25 6 -25 13 -1 6 -2 145 -3 307 -1 162 -6 306 -10 320 -15 44
-65 97 -107 114 -33 14 -81 16 -275 16 l-234 0 0 214 0 213 73 24 c136 43 255
116 363 223 167 167 251 356 268 604 2 23 5 45 9 48 3 3 25 8 49 10 223 23
445 181 548 389 70 141 73 163 78 509 2 170 1 325 -3 344 -6 31 -53 90 -75 93
-6 1 -14 3 -20 4 -5 1 -139 3 -297 4 l-288 1 1 88 c0 48 -4 93 -9 100 -7 9
-201 12 -907 12 -706 0 -900 -3 -907 -12z m-8 -861 c0 -225 -3 -411 -6 -413
-14 -8 -112 17 -162 41 -145 72 -250 226 -257 380 -2 55 -3 346 -1 388 1 16
16 17 213 15 l213 -3 0 -408z m2256 396 c0 -10 1 -110 1 -223 0 -186 -2 -211
-23 -270 -37 -109 -94 -185 -182 -243 -58 -38 -155 -75 -195 -73 l-27 1 0 400
c-1 220 1 406 3 413 3 9 55 12 213 12 192 0 209 -1 210 -17z"/>
</g>
</svg>
